%TF.GenerationSoftware,KiCad,Pcbnew,9.0.4*%
%TF.CreationDate,2025-11-29T15:55:59+01:00*%
%TF.ProjectId,SMD OSC Adapter,534d4420-4f53-4432-9041-646170746572,rev?*%
%TF.SameCoordinates,Original*%
%TF.FileFunction,Legend,Bot*%
%TF.FilePolarity,Positive*%
%FSLAX46Y46*%
G04 Gerber Fmt 4.6, Leading zero omitted, Abs format (unit mm)*
G04 Created by KiCad (PCBNEW 9.0.4) date 2025-11-29 15:55:59*
%MOMM*%
%LPD*%
G01*
G04 APERTURE LIST*
%ADD10C,0.125000*%
%ADD11R,1.600000X1.600000*%
%ADD12C,1.600000*%
G04 APERTURE END LIST*
D10*
X98866668Y-63834231D02*
X98866668Y-63167564D01*
X98866668Y-63262802D02*
X98819049Y-63215183D01*
X98819049Y-63215183D02*
X98723811Y-63167564D01*
X98723811Y-63167564D02*
X98580954Y-63167564D01*
X98580954Y-63167564D02*
X98485716Y-63215183D01*
X98485716Y-63215183D02*
X98438097Y-63310421D01*
X98438097Y-63310421D02*
X98438097Y-63834231D01*
X98438097Y-63310421D02*
X98390478Y-63215183D01*
X98390478Y-63215183D02*
X98295240Y-63167564D01*
X98295240Y-63167564D02*
X98152383Y-63167564D01*
X98152383Y-63167564D02*
X98057144Y-63215183D01*
X98057144Y-63215183D02*
X98009525Y-63310421D01*
X98009525Y-63310421D02*
X98009525Y-63834231D01*
X97104764Y-63834231D02*
X97104764Y-63310421D01*
X97104764Y-63310421D02*
X97152383Y-63215183D01*
X97152383Y-63215183D02*
X97247621Y-63167564D01*
X97247621Y-63167564D02*
X97438097Y-63167564D01*
X97438097Y-63167564D02*
X97533335Y-63215183D01*
X97104764Y-63786612D02*
X97200002Y-63834231D01*
X97200002Y-63834231D02*
X97438097Y-63834231D01*
X97438097Y-63834231D02*
X97533335Y-63786612D01*
X97533335Y-63786612D02*
X97580954Y-63691373D01*
X97580954Y-63691373D02*
X97580954Y-63596135D01*
X97580954Y-63596135D02*
X97533335Y-63500897D01*
X97533335Y-63500897D02*
X97438097Y-63453278D01*
X97438097Y-63453278D02*
X97200002Y-63453278D01*
X97200002Y-63453278D02*
X97104764Y-63405659D01*
X96771430Y-63167564D02*
X96390478Y-63167564D01*
X96628573Y-62834231D02*
X96628573Y-63691373D01*
X96628573Y-63691373D02*
X96580954Y-63786612D01*
X96580954Y-63786612D02*
X96485716Y-63834231D01*
X96485716Y-63834231D02*
X96390478Y-63834231D01*
X96152382Y-63167564D02*
X95628573Y-63167564D01*
X95628573Y-63167564D02*
X96152382Y-63834231D01*
X96152382Y-63834231D02*
X95628573Y-63834231D01*
X94866668Y-63786612D02*
X94961906Y-63834231D01*
X94961906Y-63834231D02*
X95152382Y-63834231D01*
X95152382Y-63834231D02*
X95247620Y-63786612D01*
X95247620Y-63786612D02*
X95295239Y-63691373D01*
X95295239Y-63691373D02*
X95295239Y-63310421D01*
X95295239Y-63310421D02*
X95247620Y-63215183D01*
X95247620Y-63215183D02*
X95152382Y-63167564D01*
X95152382Y-63167564D02*
X94961906Y-63167564D01*
X94961906Y-63167564D02*
X94866668Y-63215183D01*
X94866668Y-63215183D02*
X94819049Y-63310421D01*
X94819049Y-63310421D02*
X94819049Y-63405659D01*
X94819049Y-63405659D02*
X95295239Y-63500897D01*
X94485715Y-62834231D02*
X93819049Y-62834231D01*
X93819049Y-62834231D02*
X94247620Y-63834231D01*
X93390477Y-63834231D02*
X93200001Y-63834231D01*
X93200001Y-63834231D02*
X93104763Y-63786612D01*
X93104763Y-63786612D02*
X93057144Y-63738992D01*
X93057144Y-63738992D02*
X92961906Y-63596135D01*
X92961906Y-63596135D02*
X92914287Y-63405659D01*
X92914287Y-63405659D02*
X92914287Y-63024707D01*
X92914287Y-63024707D02*
X92961906Y-62929469D01*
X92961906Y-62929469D02*
X93009525Y-62881850D01*
X93009525Y-62881850D02*
X93104763Y-62834231D01*
X93104763Y-62834231D02*
X93295239Y-62834231D01*
X93295239Y-62834231D02*
X93390477Y-62881850D01*
X93390477Y-62881850D02*
X93438096Y-62929469D01*
X93438096Y-62929469D02*
X93485715Y-63024707D01*
X93485715Y-63024707D02*
X93485715Y-63262802D01*
X93485715Y-63262802D02*
X93438096Y-63358040D01*
X93438096Y-63358040D02*
X93390477Y-63405659D01*
X93390477Y-63405659D02*
X93295239Y-63453278D01*
X93295239Y-63453278D02*
X93104763Y-63453278D01*
X93104763Y-63453278D02*
X93009525Y-63405659D01*
X93009525Y-63405659D02*
X92961906Y-63358040D01*
X92961906Y-63358040D02*
X92914287Y-63262802D01*
X91723810Y-63453278D02*
X90961906Y-63453278D01*
X89771429Y-62929469D02*
X89723810Y-62881850D01*
X89723810Y-62881850D02*
X89628572Y-62834231D01*
X89628572Y-62834231D02*
X89390477Y-62834231D01*
X89390477Y-62834231D02*
X89295239Y-62881850D01*
X89295239Y-62881850D02*
X89247620Y-62929469D01*
X89247620Y-62929469D02*
X89200001Y-63024707D01*
X89200001Y-63024707D02*
X89200001Y-63119945D01*
X89200001Y-63119945D02*
X89247620Y-63262802D01*
X89247620Y-63262802D02*
X89819048Y-63834231D01*
X89819048Y-63834231D02*
X89200001Y-63834231D01*
X88580953Y-62834231D02*
X88485715Y-62834231D01*
X88485715Y-62834231D02*
X88390477Y-62881850D01*
X88390477Y-62881850D02*
X88342858Y-62929469D01*
X88342858Y-62929469D02*
X88295239Y-63024707D01*
X88295239Y-63024707D02*
X88247620Y-63215183D01*
X88247620Y-63215183D02*
X88247620Y-63453278D01*
X88247620Y-63453278D02*
X88295239Y-63643754D01*
X88295239Y-63643754D02*
X88342858Y-63738992D01*
X88342858Y-63738992D02*
X88390477Y-63786612D01*
X88390477Y-63786612D02*
X88485715Y-63834231D01*
X88485715Y-63834231D02*
X88580953Y-63834231D01*
X88580953Y-63834231D02*
X88676191Y-63786612D01*
X88676191Y-63786612D02*
X88723810Y-63738992D01*
X88723810Y-63738992D02*
X88771429Y-63643754D01*
X88771429Y-63643754D02*
X88819048Y-63453278D01*
X88819048Y-63453278D02*
X88819048Y-63215183D01*
X88819048Y-63215183D02*
X88771429Y-63024707D01*
X88771429Y-63024707D02*
X88723810Y-62929469D01*
X88723810Y-62929469D02*
X88676191Y-62881850D01*
X88676191Y-62881850D02*
X88580953Y-62834231D01*
X87866667Y-62929469D02*
X87819048Y-62881850D01*
X87819048Y-62881850D02*
X87723810Y-62834231D01*
X87723810Y-62834231D02*
X87485715Y-62834231D01*
X87485715Y-62834231D02*
X87390477Y-62881850D01*
X87390477Y-62881850D02*
X87342858Y-62929469D01*
X87342858Y-62929469D02*
X87295239Y-63024707D01*
X87295239Y-63024707D02*
X87295239Y-63119945D01*
X87295239Y-63119945D02*
X87342858Y-63262802D01*
X87342858Y-63262802D02*
X87914286Y-63834231D01*
X87914286Y-63834231D02*
X87295239Y-63834231D01*
X86390477Y-62834231D02*
X86866667Y-62834231D01*
X86866667Y-62834231D02*
X86914286Y-63310421D01*
X86914286Y-63310421D02*
X86866667Y-63262802D01*
X86866667Y-63262802D02*
X86771429Y-63215183D01*
X86771429Y-63215183D02*
X86533334Y-63215183D01*
X86533334Y-63215183D02*
X86438096Y-63262802D01*
X86438096Y-63262802D02*
X86390477Y-63310421D01*
X86390477Y-63310421D02*
X86342858Y-63405659D01*
X86342858Y-63405659D02*
X86342858Y-63643754D01*
X86342858Y-63643754D02*
X86390477Y-63738992D01*
X86390477Y-63738992D02*
X86438096Y-63786612D01*
X86438096Y-63786612D02*
X86533334Y-63834231D01*
X86533334Y-63834231D02*
X86771429Y-63834231D01*
X86771429Y-63834231D02*
X86866667Y-63786612D01*
X86866667Y-63786612D02*
X86914286Y-63738992D01*
X98961906Y-64444175D02*
X98295240Y-64444175D01*
X98295240Y-64444175D02*
X98723811Y-65444175D01*
X97723811Y-64444175D02*
X97628573Y-64444175D01*
X97628573Y-64444175D02*
X97533335Y-64491794D01*
X97533335Y-64491794D02*
X97485716Y-64539413D01*
X97485716Y-64539413D02*
X97438097Y-64634651D01*
X97438097Y-64634651D02*
X97390478Y-64825127D01*
X97390478Y-64825127D02*
X97390478Y-65063222D01*
X97390478Y-65063222D02*
X97438097Y-65253698D01*
X97438097Y-65253698D02*
X97485716Y-65348936D01*
X97485716Y-65348936D02*
X97533335Y-65396556D01*
X97533335Y-65396556D02*
X97628573Y-65444175D01*
X97628573Y-65444175D02*
X97723811Y-65444175D01*
X97723811Y-65444175D02*
X97819049Y-65396556D01*
X97819049Y-65396556D02*
X97866668Y-65348936D01*
X97866668Y-65348936D02*
X97914287Y-65253698D01*
X97914287Y-65253698D02*
X97961906Y-65063222D01*
X97961906Y-65063222D02*
X97961906Y-64825127D01*
X97961906Y-64825127D02*
X97914287Y-64634651D01*
X97914287Y-64634651D02*
X97866668Y-64539413D01*
X97866668Y-64539413D02*
X97819049Y-64491794D01*
X97819049Y-64491794D02*
X97723811Y-64444175D01*
X96485716Y-64444175D02*
X96961906Y-64444175D01*
X96961906Y-64444175D02*
X97009525Y-64920365D01*
X97009525Y-64920365D02*
X96961906Y-64872746D01*
X96961906Y-64872746D02*
X96866668Y-64825127D01*
X96866668Y-64825127D02*
X96628573Y-64825127D01*
X96628573Y-64825127D02*
X96533335Y-64872746D01*
X96533335Y-64872746D02*
X96485716Y-64920365D01*
X96485716Y-64920365D02*
X96438097Y-65015603D01*
X96438097Y-65015603D02*
X96438097Y-65253698D01*
X96438097Y-65253698D02*
X96485716Y-65348936D01*
X96485716Y-65348936D02*
X96533335Y-65396556D01*
X96533335Y-65396556D02*
X96628573Y-65444175D01*
X96628573Y-65444175D02*
X96866668Y-65444175D01*
X96866668Y-65444175D02*
X96961906Y-65396556D01*
X96961906Y-65396556D02*
X97009525Y-65348936D01*
X95819049Y-64444175D02*
X95723811Y-64444175D01*
X95723811Y-64444175D02*
X95628573Y-64491794D01*
X95628573Y-64491794D02*
X95580954Y-64539413D01*
X95580954Y-64539413D02*
X95533335Y-64634651D01*
X95533335Y-64634651D02*
X95485716Y-64825127D01*
X95485716Y-64825127D02*
X95485716Y-65063222D01*
X95485716Y-65063222D02*
X95533335Y-65253698D01*
X95533335Y-65253698D02*
X95580954Y-65348936D01*
X95580954Y-65348936D02*
X95628573Y-65396556D01*
X95628573Y-65396556D02*
X95723811Y-65444175D01*
X95723811Y-65444175D02*
X95819049Y-65444175D01*
X95819049Y-65444175D02*
X95914287Y-65396556D01*
X95914287Y-65396556D02*
X95961906Y-65348936D01*
X95961906Y-65348936D02*
X96009525Y-65253698D01*
X96009525Y-65253698D02*
X96057144Y-65063222D01*
X96057144Y-65063222D02*
X96057144Y-64825127D01*
X96057144Y-64825127D02*
X96009525Y-64634651D01*
X96009525Y-64634651D02*
X95961906Y-64539413D01*
X95961906Y-64539413D02*
X95914287Y-64491794D01*
X95914287Y-64491794D02*
X95819049Y-64444175D01*
X93580954Y-64396556D02*
X94438096Y-65682270D01*
X92009525Y-64444175D02*
X92485715Y-64444175D01*
X92485715Y-64444175D02*
X92533334Y-64920365D01*
X92533334Y-64920365D02*
X92485715Y-64872746D01*
X92485715Y-64872746D02*
X92390477Y-64825127D01*
X92390477Y-64825127D02*
X92152382Y-64825127D01*
X92152382Y-64825127D02*
X92057144Y-64872746D01*
X92057144Y-64872746D02*
X92009525Y-64920365D01*
X92009525Y-64920365D02*
X91961906Y-65015603D01*
X91961906Y-65015603D02*
X91961906Y-65253698D01*
X91961906Y-65253698D02*
X92009525Y-65348936D01*
X92009525Y-65348936D02*
X92057144Y-65396556D01*
X92057144Y-65396556D02*
X92152382Y-65444175D01*
X92152382Y-65444175D02*
X92390477Y-65444175D01*
X92390477Y-65444175D02*
X92485715Y-65396556D01*
X92485715Y-65396556D02*
X92533334Y-65348936D01*
X91342858Y-64444175D02*
X91247620Y-64444175D01*
X91247620Y-64444175D02*
X91152382Y-64491794D01*
X91152382Y-64491794D02*
X91104763Y-64539413D01*
X91104763Y-64539413D02*
X91057144Y-64634651D01*
X91057144Y-64634651D02*
X91009525Y-64825127D01*
X91009525Y-64825127D02*
X91009525Y-65063222D01*
X91009525Y-65063222D02*
X91057144Y-65253698D01*
X91057144Y-65253698D02*
X91104763Y-65348936D01*
X91104763Y-65348936D02*
X91152382Y-65396556D01*
X91152382Y-65396556D02*
X91247620Y-65444175D01*
X91247620Y-65444175D02*
X91342858Y-65444175D01*
X91342858Y-65444175D02*
X91438096Y-65396556D01*
X91438096Y-65396556D02*
X91485715Y-65348936D01*
X91485715Y-65348936D02*
X91533334Y-65253698D01*
X91533334Y-65253698D02*
X91580953Y-65063222D01*
X91580953Y-65063222D02*
X91580953Y-64825127D01*
X91580953Y-64825127D02*
X91533334Y-64634651D01*
X91533334Y-64634651D02*
X91485715Y-64539413D01*
X91485715Y-64539413D02*
X91438096Y-64491794D01*
X91438096Y-64491794D02*
X91342858Y-64444175D01*
X90676191Y-64444175D02*
X90057144Y-64444175D01*
X90057144Y-64444175D02*
X90390477Y-64825127D01*
X90390477Y-64825127D02*
X90247620Y-64825127D01*
X90247620Y-64825127D02*
X90152382Y-64872746D01*
X90152382Y-64872746D02*
X90104763Y-64920365D01*
X90104763Y-64920365D02*
X90057144Y-65015603D01*
X90057144Y-65015603D02*
X90057144Y-65253698D01*
X90057144Y-65253698D02*
X90104763Y-65348936D01*
X90104763Y-65348936D02*
X90152382Y-65396556D01*
X90152382Y-65396556D02*
X90247620Y-65444175D01*
X90247620Y-65444175D02*
X90533334Y-65444175D01*
X90533334Y-65444175D02*
X90628572Y-65396556D01*
X90628572Y-65396556D02*
X90676191Y-65348936D01*
X89676191Y-64539413D02*
X89628572Y-64491794D01*
X89628572Y-64491794D02*
X89533334Y-64444175D01*
X89533334Y-64444175D02*
X89295239Y-64444175D01*
X89295239Y-64444175D02*
X89200001Y-64491794D01*
X89200001Y-64491794D02*
X89152382Y-64539413D01*
X89152382Y-64539413D02*
X89104763Y-64634651D01*
X89104763Y-64634651D02*
X89104763Y-64729889D01*
X89104763Y-64729889D02*
X89152382Y-64872746D01*
X89152382Y-64872746D02*
X89723810Y-65444175D01*
X89723810Y-65444175D02*
X89104763Y-65444175D01*
X87200001Y-64396556D02*
X88057143Y-65682270D01*
X86200000Y-64444175D02*
X85580953Y-64444175D01*
X85580953Y-64444175D02*
X85914286Y-64825127D01*
X85914286Y-64825127D02*
X85771429Y-64825127D01*
X85771429Y-64825127D02*
X85676191Y-64872746D01*
X85676191Y-64872746D02*
X85628572Y-64920365D01*
X85628572Y-64920365D02*
X85580953Y-65015603D01*
X85580953Y-65015603D02*
X85580953Y-65253698D01*
X85580953Y-65253698D02*
X85628572Y-65348936D01*
X85628572Y-65348936D02*
X85676191Y-65396556D01*
X85676191Y-65396556D02*
X85771429Y-65444175D01*
X85771429Y-65444175D02*
X86057143Y-65444175D01*
X86057143Y-65444175D02*
X86152381Y-65396556D01*
X86152381Y-65396556D02*
X86200000Y-65348936D01*
X85200000Y-64539413D02*
X85152381Y-64491794D01*
X85152381Y-64491794D02*
X85057143Y-64444175D01*
X85057143Y-64444175D02*
X84819048Y-64444175D01*
X84819048Y-64444175D02*
X84723810Y-64491794D01*
X84723810Y-64491794D02*
X84676191Y-64539413D01*
X84676191Y-64539413D02*
X84628572Y-64634651D01*
X84628572Y-64634651D02*
X84628572Y-64729889D01*
X84628572Y-64729889D02*
X84676191Y-64872746D01*
X84676191Y-64872746D02*
X85247619Y-65444175D01*
X85247619Y-65444175D02*
X84628572Y-65444175D01*
X84247619Y-64539413D02*
X84200000Y-64491794D01*
X84200000Y-64491794D02*
X84104762Y-64444175D01*
X84104762Y-64444175D02*
X83866667Y-64444175D01*
X83866667Y-64444175D02*
X83771429Y-64491794D01*
X83771429Y-64491794D02*
X83723810Y-64539413D01*
X83723810Y-64539413D02*
X83676191Y-64634651D01*
X83676191Y-64634651D02*
X83676191Y-64729889D01*
X83676191Y-64729889D02*
X83723810Y-64872746D01*
X83723810Y-64872746D02*
X84295238Y-65444175D01*
X84295238Y-65444175D02*
X83676191Y-65444175D01*
X82771429Y-64444175D02*
X83247619Y-64444175D01*
X83247619Y-64444175D02*
X83295238Y-64920365D01*
X83295238Y-64920365D02*
X83247619Y-64872746D01*
X83247619Y-64872746D02*
X83152381Y-64825127D01*
X83152381Y-64825127D02*
X82914286Y-64825127D01*
X82914286Y-64825127D02*
X82819048Y-64872746D01*
X82819048Y-64872746D02*
X82771429Y-64920365D01*
X82771429Y-64920365D02*
X82723810Y-65015603D01*
X82723810Y-65015603D02*
X82723810Y-65253698D01*
X82723810Y-65253698D02*
X82771429Y-65348936D01*
X82771429Y-65348936D02*
X82819048Y-65396556D01*
X82819048Y-65396556D02*
X82914286Y-65444175D01*
X82914286Y-65444175D02*
X83152381Y-65444175D01*
X83152381Y-65444175D02*
X83247619Y-65396556D01*
X83247619Y-65396556D02*
X83295238Y-65348936D01*
X98676192Y-66054119D02*
X98485716Y-66054119D01*
X98485716Y-66054119D02*
X98390478Y-66101738D01*
X98390478Y-66101738D02*
X98295240Y-66196976D01*
X98295240Y-66196976D02*
X98247621Y-66387452D01*
X98247621Y-66387452D02*
X98247621Y-66720785D01*
X98247621Y-66720785D02*
X98295240Y-66911261D01*
X98295240Y-66911261D02*
X98390478Y-67006500D01*
X98390478Y-67006500D02*
X98485716Y-67054119D01*
X98485716Y-67054119D02*
X98676192Y-67054119D01*
X98676192Y-67054119D02*
X98771430Y-67006500D01*
X98771430Y-67006500D02*
X98866668Y-66911261D01*
X98866668Y-66911261D02*
X98914287Y-66720785D01*
X98914287Y-66720785D02*
X98914287Y-66387452D01*
X98914287Y-66387452D02*
X98866668Y-66196976D01*
X98866668Y-66196976D02*
X98771430Y-66101738D01*
X98771430Y-66101738D02*
X98676192Y-66054119D01*
X97866668Y-67006500D02*
X97723811Y-67054119D01*
X97723811Y-67054119D02*
X97485716Y-67054119D01*
X97485716Y-67054119D02*
X97390478Y-67006500D01*
X97390478Y-67006500D02*
X97342859Y-66958880D01*
X97342859Y-66958880D02*
X97295240Y-66863642D01*
X97295240Y-66863642D02*
X97295240Y-66768404D01*
X97295240Y-66768404D02*
X97342859Y-66673166D01*
X97342859Y-66673166D02*
X97390478Y-66625547D01*
X97390478Y-66625547D02*
X97485716Y-66577928D01*
X97485716Y-66577928D02*
X97676192Y-66530309D01*
X97676192Y-66530309D02*
X97771430Y-66482690D01*
X97771430Y-66482690D02*
X97819049Y-66435071D01*
X97819049Y-66435071D02*
X97866668Y-66339833D01*
X97866668Y-66339833D02*
X97866668Y-66244595D01*
X97866668Y-66244595D02*
X97819049Y-66149357D01*
X97819049Y-66149357D02*
X97771430Y-66101738D01*
X97771430Y-66101738D02*
X97676192Y-66054119D01*
X97676192Y-66054119D02*
X97438097Y-66054119D01*
X97438097Y-66054119D02*
X97295240Y-66101738D01*
X96295240Y-66958880D02*
X96342859Y-67006500D01*
X96342859Y-67006500D02*
X96485716Y-67054119D01*
X96485716Y-67054119D02*
X96580954Y-67054119D01*
X96580954Y-67054119D02*
X96723811Y-67006500D01*
X96723811Y-67006500D02*
X96819049Y-66911261D01*
X96819049Y-66911261D02*
X96866668Y-66816023D01*
X96866668Y-66816023D02*
X96914287Y-66625547D01*
X96914287Y-66625547D02*
X96914287Y-66482690D01*
X96914287Y-66482690D02*
X96866668Y-66292214D01*
X96866668Y-66292214D02*
X96819049Y-66196976D01*
X96819049Y-66196976D02*
X96723811Y-66101738D01*
X96723811Y-66101738D02*
X96580954Y-66054119D01*
X96580954Y-66054119D02*
X96485716Y-66054119D01*
X96485716Y-66054119D02*
X96342859Y-66101738D01*
X96342859Y-66101738D02*
X96295240Y-66149357D01*
X95104763Y-67054119D02*
X95104763Y-66054119D01*
X95104763Y-66054119D02*
X94866668Y-66054119D01*
X94866668Y-66054119D02*
X94723811Y-66101738D01*
X94723811Y-66101738D02*
X94628573Y-66196976D01*
X94628573Y-66196976D02*
X94580954Y-66292214D01*
X94580954Y-66292214D02*
X94533335Y-66482690D01*
X94533335Y-66482690D02*
X94533335Y-66625547D01*
X94533335Y-66625547D02*
X94580954Y-66816023D01*
X94580954Y-66816023D02*
X94628573Y-66911261D01*
X94628573Y-66911261D02*
X94723811Y-67006500D01*
X94723811Y-67006500D02*
X94866668Y-67054119D01*
X94866668Y-67054119D02*
X95104763Y-67054119D01*
X94104763Y-67054119D02*
X94104763Y-66054119D01*
X93628573Y-67054119D02*
X93628573Y-66054119D01*
X93628573Y-66054119D02*
X93247621Y-66054119D01*
X93247621Y-66054119D02*
X93152383Y-66101738D01*
X93152383Y-66101738D02*
X93104764Y-66149357D01*
X93104764Y-66149357D02*
X93057145Y-66244595D01*
X93057145Y-66244595D02*
X93057145Y-66387452D01*
X93057145Y-66387452D02*
X93104764Y-66482690D01*
X93104764Y-66482690D02*
X93152383Y-66530309D01*
X93152383Y-66530309D02*
X93247621Y-66577928D01*
X93247621Y-66577928D02*
X93628573Y-66577928D01*
X92104764Y-67054119D02*
X92676192Y-67054119D01*
X92390478Y-67054119D02*
X92390478Y-66054119D01*
X92390478Y-66054119D02*
X92485716Y-66196976D01*
X92485716Y-66196976D02*
X92580954Y-66292214D01*
X92580954Y-66292214D02*
X92676192Y-66339833D01*
X91247621Y-66387452D02*
X91247621Y-67054119D01*
X91485716Y-66006500D02*
X91723811Y-66720785D01*
X91723811Y-66720785D02*
X91104764Y-66720785D01*
X90009525Y-66768404D02*
X89533335Y-66768404D01*
X90104763Y-67054119D02*
X89771430Y-66054119D01*
X89771430Y-66054119D02*
X89438097Y-67054119D01*
X88676192Y-67054119D02*
X88676192Y-66054119D01*
X88676192Y-67006500D02*
X88771430Y-67054119D01*
X88771430Y-67054119D02*
X88961906Y-67054119D01*
X88961906Y-67054119D02*
X89057144Y-67006500D01*
X89057144Y-67006500D02*
X89104763Y-66958880D01*
X89104763Y-66958880D02*
X89152382Y-66863642D01*
X89152382Y-66863642D02*
X89152382Y-66577928D01*
X89152382Y-66577928D02*
X89104763Y-66482690D01*
X89104763Y-66482690D02*
X89057144Y-66435071D01*
X89057144Y-66435071D02*
X88961906Y-66387452D01*
X88961906Y-66387452D02*
X88771430Y-66387452D01*
X88771430Y-66387452D02*
X88676192Y-66435071D01*
X87771430Y-67054119D02*
X87771430Y-66530309D01*
X87771430Y-66530309D02*
X87819049Y-66435071D01*
X87819049Y-66435071D02*
X87914287Y-66387452D01*
X87914287Y-66387452D02*
X88104763Y-66387452D01*
X88104763Y-66387452D02*
X88200001Y-66435071D01*
X87771430Y-67006500D02*
X87866668Y-67054119D01*
X87866668Y-67054119D02*
X88104763Y-67054119D01*
X88104763Y-67054119D02*
X88200001Y-67006500D01*
X88200001Y-67006500D02*
X88247620Y-66911261D01*
X88247620Y-66911261D02*
X88247620Y-66816023D01*
X88247620Y-66816023D02*
X88200001Y-66720785D01*
X88200001Y-66720785D02*
X88104763Y-66673166D01*
X88104763Y-66673166D02*
X87866668Y-66673166D01*
X87866668Y-66673166D02*
X87771430Y-66625547D01*
X87295239Y-66387452D02*
X87295239Y-67387452D01*
X87295239Y-66435071D02*
X87200001Y-66387452D01*
X87200001Y-66387452D02*
X87009525Y-66387452D01*
X87009525Y-66387452D02*
X86914287Y-66435071D01*
X86914287Y-66435071D02*
X86866668Y-66482690D01*
X86866668Y-66482690D02*
X86819049Y-66577928D01*
X86819049Y-66577928D02*
X86819049Y-66863642D01*
X86819049Y-66863642D02*
X86866668Y-66958880D01*
X86866668Y-66958880D02*
X86914287Y-67006500D01*
X86914287Y-67006500D02*
X87009525Y-67054119D01*
X87009525Y-67054119D02*
X87200001Y-67054119D01*
X87200001Y-67054119D02*
X87295239Y-67006500D01*
X86533334Y-66387452D02*
X86152382Y-66387452D01*
X86390477Y-66054119D02*
X86390477Y-66911261D01*
X86390477Y-66911261D02*
X86342858Y-67006500D01*
X86342858Y-67006500D02*
X86247620Y-67054119D01*
X86247620Y-67054119D02*
X86152382Y-67054119D01*
X85438096Y-67006500D02*
X85533334Y-67054119D01*
X85533334Y-67054119D02*
X85723810Y-67054119D01*
X85723810Y-67054119D02*
X85819048Y-67006500D01*
X85819048Y-67006500D02*
X85866667Y-66911261D01*
X85866667Y-66911261D02*
X85866667Y-66530309D01*
X85866667Y-66530309D02*
X85819048Y-66435071D01*
X85819048Y-66435071D02*
X85723810Y-66387452D01*
X85723810Y-66387452D02*
X85533334Y-66387452D01*
X85533334Y-66387452D02*
X85438096Y-66435071D01*
X85438096Y-66435071D02*
X85390477Y-66530309D01*
X85390477Y-66530309D02*
X85390477Y-66625547D01*
X85390477Y-66625547D02*
X85866667Y-66720785D01*
X84961905Y-67054119D02*
X84961905Y-66387452D01*
X84961905Y-66577928D02*
X84914286Y-66482690D01*
X84914286Y-66482690D02*
X84866667Y-66435071D01*
X84866667Y-66435071D02*
X84771429Y-66387452D01*
X84771429Y-66387452D02*
X84676191Y-66387452D01*
%LPC*%
D11*
%TO.C,Y4*%
X84153000Y-68927800D03*
D12*
X99393000Y-68927800D03*
X99393000Y-61307800D03*
X84153000Y-61307800D03*
%TD*%
%LPD*%
M02*
