%TF.GenerationSoftware,KiCad,Pcbnew,9.0.4*%
%TF.CreationDate,2025-11-29T15:55:59+01:00*%
%TF.ProjectId,SMD OSC Adapter,534d4420-4f53-4432-9041-646170746572,rev?*%
%TF.SameCoordinates,Original*%
%TF.FileFunction,Legend,Top*%
%TF.FilePolarity,Positive*%
%FSLAX46Y46*%
G04 Gerber Fmt 4.6, Leading zero omitted, Abs format (unit mm)*
G04 Created by KiCad (PCBNEW 9.0.4) date 2025-11-29 15:55:59*
%MOMM*%
%LPD*%
G01*
G04 APERTURE LIST*
G04 Aperture macros list*
%AMRoundRect*
0 Rectangle with rounded corners*
0 $1 Rounding radius*
0 $2 $3 $4 $5 $6 $7 $8 $9 X,Y pos of 4 corners*
0 Add a 4 corners polygon primitive as box body*
4,1,4,$2,$3,$4,$5,$6,$7,$8,$9,$2,$3,0*
0 Add four circle primitives for the rounded corners*
1,1,$1+$1,$2,$3*
1,1,$1+$1,$4,$5*
1,1,$1+$1,$6,$7*
1,1,$1+$1,$8,$9*
0 Add four rect primitives between the rounded corners*
20,1,$1+$1,$2,$3,$4,$5,0*
20,1,$1+$1,$4,$5,$6,$7,0*
20,1,$1+$1,$6,$7,$8,$9,0*
20,1,$1+$1,$8,$9,$2,$3,0*%
G04 Aperture macros list end*
%ADD10C,0.150000*%
%ADD11C,0.120000*%
%ADD12RoundRect,0.100000X-0.217500X-0.100000X0.217500X-0.100000X0.217500X0.100000X-0.217500X0.100000X0*%
%ADD13R,1.000000X0.900000*%
%ADD14RoundRect,0.250001X-0.549999X-0.499999X0.549999X-0.499999X0.549999X0.499999X-0.549999X0.499999X0*%
%ADD15R,1.600000X1.600000*%
%ADD16C,1.600000*%
%ADD17RoundRect,0.250000X-0.650000X-0.750000X0.650000X-0.750000X0.650000X0.750000X-0.650000X0.750000X0*%
G04 APERTURE END LIST*
D10*
X91296809Y-57646428D02*
X91296809Y-58122619D01*
X90963476Y-57122619D02*
X91296809Y-57646428D01*
X91296809Y-57646428D02*
X91630142Y-57122619D01*
X92392047Y-57455952D02*
X92392047Y-58122619D01*
X92153952Y-57075000D02*
X91915857Y-57789285D01*
X91915857Y-57789285D02*
X92534904Y-57789285D01*
X92589409Y-60919028D02*
X92589409Y-61395219D01*
X92256076Y-60395219D02*
X92589409Y-60919028D01*
X92589409Y-60919028D02*
X92922742Y-60395219D01*
X93779885Y-61395219D02*
X93208457Y-61395219D01*
X93494171Y-61395219D02*
X93494171Y-60395219D01*
X93494171Y-60395219D02*
X93398933Y-60538076D01*
X93398933Y-60538076D02*
X93303695Y-60633314D01*
X93303695Y-60633314D02*
X93208457Y-60680933D01*
D11*
%TO.C,Y3*%
X97479000Y-66407400D02*
X97479000Y-63622400D01*
X97679000Y-66407400D02*
X97479000Y-66407400D01*
X101149000Y-63622400D02*
X101149000Y-66222400D01*
%TO.C,Y2*%
X82939600Y-62960800D02*
X83369600Y-62960800D01*
X82939600Y-66680800D02*
X82939600Y-62960800D01*
X83369600Y-66680800D02*
X82939600Y-66680800D01*
X83369600Y-66930800D02*
X83369600Y-66680800D01*
X85489600Y-62960800D02*
X85909600Y-62960800D01*
X85489600Y-66680800D02*
X85489600Y-66930800D01*
X85909600Y-66680800D02*
X85489600Y-66680800D01*
X88029600Y-62960800D02*
X88459600Y-62960800D01*
X88459600Y-62960800D02*
X88459600Y-66680800D01*
X88459600Y-66680800D02*
X88029600Y-66680800D01*
%TO.C,Y4*%
X81323000Y-59417800D02*
X81323000Y-71567800D01*
X81323000Y-71567800D02*
X101473000Y-71567800D01*
X101473000Y-58667800D02*
X82073000Y-58667800D01*
X102223000Y-70817800D02*
X102223000Y-59417800D01*
X81323000Y-59417800D02*
G75*
G02*
X82073000Y-58667800I750000J0D01*
G01*
X101473000Y-58667800D02*
G75*
G02*
X102223000Y-59417800I0J-750000D01*
G01*
X102223000Y-70817800D02*
G75*
G02*
X101473000Y-71567800I-750000J0D01*
G01*
%TO.C,Y1*%
X89305600Y-62230400D02*
X89365600Y-62230400D01*
X89305600Y-67750400D02*
X89305600Y-62230400D01*
X89365600Y-67750400D02*
X89305600Y-67750400D01*
X89365600Y-68350400D02*
X89365600Y-67750400D01*
X91685600Y-62230400D02*
X94445600Y-62230400D01*
X91685600Y-67750400D02*
X91685600Y-68350400D01*
X94445600Y-67750400D02*
X91685600Y-67750400D01*
X96765600Y-62230400D02*
X96825600Y-62230400D01*
X96825600Y-62230400D02*
X96825600Y-67750400D01*
X96825600Y-67750400D02*
X96765600Y-67750400D01*
%TD*%
%LPC*%
D12*
%TO.C,C1*%
X86561000Y-60325000D03*
X87376000Y-60325000D03*
%TD*%
D13*
%TO.C,Y3*%
X98239000Y-65697400D03*
X100389000Y-65697400D03*
X100389000Y-64147400D03*
X98239000Y-64147400D03*
%TD*%
D14*
%TO.C,Y2*%
X84429600Y-65920800D03*
X86969600Y-65920800D03*
X86969600Y-63720800D03*
X84429600Y-63720800D03*
%TD*%
D15*
%TO.C,Y4*%
X84153000Y-68927800D03*
D16*
X99393000Y-68927800D03*
X99393000Y-61307800D03*
X84153000Y-61307800D03*
%TD*%
D17*
%TO.C,Y1*%
X90525600Y-67090400D03*
X95605600Y-67090400D03*
X95605600Y-62890400D03*
X90525600Y-62890400D03*
%TD*%
%LPD*%
M02*
